<svg width="268" height="331" viewBox="0 0 268 331" fill="none" xmlns="http://www.w3.org/2000/svg">
<path d="M11.8599 22.4247C5.00279 31.8614 1.57422 51.5552 1.57422 51.5552L3.85993 55.2478C3.85993 55.2478 6.14565 50.1485 11.8599 44.17C17.5742 38.1915 23.6695 34.3231 25.9552 34.3231C28.2409 34.3231 38.9076 34.7334 39.6695 35.554C40.4314 36.3745 66.7171 41.298 66.7171 41.298C66.7171 41.298 81.9552 41.298 91.098 38.426C100.241 35.554 109.765 29.3996 109.765 29.3996H110.527C110.527 29.3996 103.308 38.9514 99.098 45.4009C92.6856 55.2248 88.6635 60.6359 84.2409 71.6593C80.5443 80.873 79.1476 86.4211 77.3837 96.2767C74.3985 112.957 76.6218 139.767 76.6218 139.767C76.6218 139.767 58.3361 135.254 47.6695 139.767C37.0028 144.28 31.2885 156.589 31.2885 156.589H50.3361C54.9076 156.589 64.0504 161.513 68.6218 165.615C73.1933 169.718 76.9966 174.845 78.9076 182.437C80.3483 188.161 79.2885 197.618 79.2885 197.618C79.2885 197.618 68.6218 194.746 62.9076 194.746C57.1933 194.746 55.6695 195.567 52.6218 196.797C49.5742 198.028 42.7171 203.772 42.7171 203.772C42.7171 203.772 47.3932 204.617 50.3361 205.413C54.8989 206.648 57.5954 207.169 61.7647 209.516C69.5959 213.925 76.2409 223.056 77.7647 226.748C79.2885 230.441 81.1933 240.288 79.6695 250.545C78.1456 260.802 73.108 269.344 66.7171 280.086C56.3308 297.543 32.0504 317.832 32.0504 317.832L34.7171 321.525C34.7171 321.525 53.2033 312.114 65.5742 307.575C87.8624 299.398 115.098 294.856 124.622 294.446C134.146 294.036 157.193 295.858 176.431 303.472C193.509 310.231 216.812 328.5 216.812 328.5L265.574 278.445L258.717 271.88L246.146 281.727C246.146 281.727 245.003 283.368 240.05 281.727C235.098 280.086 233.004 276.221 228.241 273.111C218.395 266.683 212.679 262.846 201.574 259.572C190.051 256.174 183.038 256.268 171.098 256.699C158.289 257.163 151.269 259.657 138.717 262.444C127.62 264.907 110.527 269.829 110.527 269.829C110.527 269.829 109.765 269.829 112.05 267.367C114.336 264.905 124.177 256.963 131.479 249.725C138.445 242.819 148.622 231.262 148.622 231.262C148.622 231.262 154.024 224.492 157.003 219.774C160.375 214.432 162.015 211.23 164.622 205.413C168.407 196.969 169.891 191.877 172.241 182.848C175.779 169.252 176.361 161.211 177.574 147.152C178.868 132.152 178.252 123.65 178.336 108.585C178.369 102.657 178.336 94.6355 178.336 93.4046C178.336 92.1738 177.193 81.9166 176.431 80.6857C175.669 79.4548 173.765 51.9655 176.431 40.0671C179.098 28.1688 181.324 25.4929 187.86 19.1424C190.801 16.2846 192.756 15.0162 196.241 12.9881C199.644 11.0077 201.66 10.0123 205.384 8.8852C209.293 7.70201 215.669 7.24404 215.669 7.24404V3.14116L200.812 3.55145C200.812 3.55145 180.207 5.27748 169.193 12.1675C157.173 19.6868 151.419 27.0921 145.193 40.4774C140.442 50.6931 139.479 52.3758 138.336 68.7873C137.193 85.1989 138.923 96.7977 139.479 114.74C140.09 134.453 141.205 145.482 141.384 165.205C141.44 171.454 141.811 174.974 141.384 181.206C140.896 188.326 140.13 192.285 138.717 199.259C137.501 205.259 136.757 208.631 134.908 214.44C133.716 218.183 131.479 223.876 131.479 223.876C131.479 223.876 129.048 230.819 126.908 234.954C124.616 239.379 120.05 245.622 120.05 245.622C120.05 245.622 113.533 254.575 109.003 259.982C103.506 266.543 100.152 269.962 94.1457 275.983C89.3614 280.779 81.5742 287.881 81.5742 287.881C81.5742 287.881 79.6826 289.517 78.9076 288.702C78.2688 288.03 78.9076 286.24 78.9076 286.24L83.8599 278.034L89.1933 268.598L93.3837 260.802L96.8123 253.827L100.622 245.622L104.812 236.595L107.098 230.441L109.003 223.876L110.527 217.722L112.05 211.157L113.955 201.721L114.336 195.567L115.098 189.822L115.479 186.54L115.86 182.848V177.514V170.129V163.974L115.479 156.179L115.098 151.255V139.767L114.717 136.075V127.869L113.955 120.073L113.193 109.406L112.05 95.8664V85.6092V73.7108L113.193 65.9153L115.479 56.889L117.765 49.9141L120.431 43.3494L125.003 34.3231L130.717 25.2967L137.574 16.6807L148.241 5.60289L146.336 3.55145C146.336 3.55145 134.527 12.1675 126.146 12.5778C117.765 12.9881 112.05 12.5778 102.527 12.1675C93.0028 11.7572 64.8123 2.32058 64.8123 2.32058C64.8123 2.32058 41.1933 -0.961738 31.6695 5.60289C22.1456 12.1675 18.7171 12.9881 11.8599 22.4247Z" stroke="black" stroke-width="3"/>
</svg>
